<svg width="80" height="80" xmlns="http://www.w3.org/2000/svg"><g fill="none" fill-rule="evenodd"><path fill="#CCC" d="M10 0h45v15h15v65H10z"/><path fill="#FFF" d="M11 1h44v14h14v64H11z"/><path fill="#FFDD0D" fill-rule="nonzero" d="m55 0 15 15H55z"/><path d="M30 72.672v-.984l4.658-6.768h-4.37V64h5.847v.92l-4.658 6.767h4.658v.985H30zm9.31 0V64h1.231v8.672h-1.23zm4.963 0V64h2.362c1.047 0 1.799.177 2.256.53.457.354.685.935.685 1.743 0 .922-.312 1.645-.937 2.168-.625.524-1.493.786-2.602.786h-.545v3.445h-1.219zm1.22-4.377h.497c.73 0 1.295-.168 1.694-.504.398-.336.597-.81.597-1.424 0-.52-.156-.89-.468-1.113-.313-.223-.834-.334-1.565-.334h-.756v3.375zM17 35h12v16H17V35zm2 2v4h8v-4h-8zm3-18h7v2h-7v-2zm0 6h7v2h-7v-2zm0 6h7v2h-7v-2zm-5-15h7v2h-7v-2zm0 6h7v2h-7v-2zm0 6h7v2h-7v-2zm5-15h7v2h-7v-2zm-5-3h7v2h-7v-2zm5-3h7v2h-7V7zm-5-3h7v2h-7V4z" fill="#666" fill-rule="nonzero"/></g></svg>